<svg width="457" height="111" viewBox="0 0 457 111" fill="none" xmlns="http://www.w3.org/2000/svg">
<path d="M432.597 95.3996C433.062 96.2133 433.547 96.9301 434.05 97.5501C434.573 98.1701 435.155 98.6544 435.794 99.0032C436.433 99.3519 437.16 99.5263 437.974 99.5263C439.059 99.5263 439.93 99.226 440.589 98.6254C441.248 98.0248 441.577 97.2595 441.577 96.3295C441.577 95.4189 441.364 94.6924 440.938 94.1499C440.512 93.6074 439.95 93.1715 439.252 92.8422C438.574 92.4934 437.848 92.1834 437.073 91.9122C436.569 91.7378 436.007 91.515 435.387 91.2438C434.767 90.9532 434.176 90.5948 433.614 90.1685C433.053 89.7229 432.588 89.1804 432.219 88.5411C431.871 87.9017 431.696 87.1171 431.696 86.1871C431.696 85.1797 431.948 84.2787 432.452 83.4844C432.956 82.6901 433.653 82.0701 434.544 81.6245C435.436 81.1595 436.453 80.927 437.596 80.927C438.7 80.927 439.659 81.1401 440.473 81.5664C441.306 81.9732 442.013 82.506 442.594 83.1647C443.176 83.8041 443.631 84.4822 443.96 85.199L441.839 86.4196C441.587 85.9159 441.267 85.4218 440.88 84.9375C440.492 84.4531 440.018 84.0559 439.456 83.746C438.913 83.436 438.245 83.281 437.451 83.281C436.346 83.281 435.542 83.5522 435.038 84.0947C434.535 84.6178 434.283 85.2087 434.283 85.8674C434.283 86.4293 434.428 86.9524 434.719 87.4367C435.009 87.9017 435.494 88.3473 436.172 88.7736C436.869 89.1804 437.809 89.5873 438.991 89.9942C439.533 90.1879 440.105 90.4398 440.705 90.7497C441.306 91.0597 441.858 91.4569 442.362 91.9413C442.885 92.4062 443.311 92.9778 443.641 93.6559C443.97 94.3146 444.135 95.109 444.135 96.0389C444.135 96.9301 443.96 97.7342 443.612 98.451C443.282 99.1679 442.817 99.7781 442.217 100.282C441.635 100.786 440.967 101.173 440.211 101.444C439.475 101.716 438.7 101.851 437.886 101.851C436.782 101.851 435.755 101.619 434.806 101.154C433.876 100.669 433.053 100.04 432.336 99.2647C431.638 98.4704 431.067 97.6276 430.621 96.7364L432.597 95.3996Z" fill="#1E272E"/>
<path d="M416.008 83.5427V81.2178H428.94V83.5427H423.709V101.561H421.239V83.5427H416.008Z" fill="#1E272E"/>
<path d="M398.342 91.6799V89.355H412.292V91.6799H398.342ZM410.635 81.2178H413.106V101.561H410.635V81.2178ZM396.977 81.2178H399.447V101.561H396.977V81.2178Z" fill="#1E272E"/>
<path d="M383.6 93.5687V91.2438H393.045C393.045 92.6581 392.831 94.0046 392.405 95.2833C391.979 96.5426 391.349 97.6664 390.516 98.6544C389.683 99.6425 388.656 100.427 387.436 101.008C386.234 101.57 384.859 101.851 383.309 101.851C381.837 101.851 380.471 101.599 379.211 101.096C377.952 100.572 376.857 99.846 375.927 98.916C374.997 97.9667 374.271 96.8526 373.748 95.5739C373.244 94.2952 372.992 92.9003 372.992 91.3891C372.992 89.8779 373.244 88.483 373.748 87.2043C374.271 85.9256 374.997 84.8212 375.927 83.8913C376.857 82.9419 377.952 82.2154 379.211 81.7117C380.471 81.1886 381.837 80.927 383.309 80.927C384.568 80.927 385.721 81.0917 386.767 81.421C387.833 81.7504 388.782 82.2348 389.615 82.8741C390.468 83.5135 391.185 84.3078 391.766 85.2571L390.022 86.8555C389.383 85.7706 388.492 84.9278 387.349 84.3272C386.205 83.7072 384.859 83.3972 383.309 83.3972C381.875 83.3972 380.577 83.7363 379.415 84.4144C378.252 85.0925 377.322 86.0321 376.625 87.2333C375.947 88.4152 375.608 89.8004 375.608 91.3891C375.608 92.9584 375.947 94.3437 376.625 95.5449C377.322 96.7461 378.252 97.6857 379.415 98.3638C380.577 99.0419 381.875 99.381 383.309 99.381C384.316 99.381 385.217 99.2357 386.012 98.9451C386.825 98.6351 387.523 98.2088 388.104 97.6664C388.685 97.1239 389.16 96.5039 389.528 95.8064C389.916 95.109 390.197 94.363 390.371 93.5687H383.6Z" fill="#1E272E"/>
<path d="M366.738 81.2178H369.208V101.561H366.738V81.2178Z" fill="#1E272E"/>
<path d="M351.285 95.3996C351.75 96.2133 352.234 96.9301 352.738 97.5501C353.261 98.1701 353.842 98.6544 354.482 99.0032C355.121 99.3519 355.847 99.5263 356.661 99.5263C357.746 99.5263 358.618 99.226 359.277 98.6254C359.935 98.0248 360.265 97.2595 360.265 96.3295C360.265 95.4189 360.052 94.6924 359.625 94.1499C359.199 93.6074 358.637 93.1715 357.94 92.8422C357.262 92.4934 356.535 92.1834 355.76 91.9122C355.256 91.7378 354.695 91.515 354.075 91.2438C353.455 90.9532 352.864 90.5948 352.302 90.1685C351.74 89.7229 351.275 89.1804 350.907 88.5411C350.558 87.9017 350.384 87.1171 350.384 86.1871C350.384 85.1797 350.636 84.2787 351.139 83.4844C351.643 82.6901 352.341 82.0701 353.232 81.6245C354.123 81.1595 355.14 80.927 356.283 80.927C357.388 80.927 358.347 81.1401 359.16 81.5664C359.993 81.9732 360.701 82.506 361.282 83.1647C361.863 83.8041 362.318 84.4822 362.648 85.199L360.526 86.4196C360.274 85.9159 359.955 85.4218 359.567 84.9375C359.18 84.4531 358.705 84.0559 358.143 83.746C357.601 83.436 356.932 83.281 356.138 83.281C355.034 83.281 354.23 83.5522 353.726 84.0947C353.222 84.6178 352.97 85.2087 352.97 85.8674C352.97 86.4293 353.116 86.9524 353.406 87.4367C353.697 87.9017 354.181 88.3473 354.859 88.7736C355.557 89.1804 356.496 89.5873 357.678 89.9942C358.221 90.1879 358.792 90.4398 359.393 90.7497C359.993 91.0597 360.546 91.4569 361.049 91.9413C361.572 92.4062 361.999 92.9778 362.328 93.6559C362.657 94.3146 362.822 95.109 362.822 96.0389C362.822 96.9301 362.648 97.7342 362.299 98.451C361.97 99.1679 361.505 99.7781 360.904 100.282C360.323 100.786 359.654 101.173 358.899 101.444C358.163 101.716 357.388 101.851 356.574 101.851C355.47 101.851 354.443 101.619 353.493 101.154C352.563 100.669 351.74 100.04 351.023 99.2647C350.326 98.4704 349.754 97.6276 349.309 96.7364L351.285 95.3996Z" fill="#1E272E"/>
<path d="M343.106 81.2176H345.576V102.578L330.173 86.4196V101.561H327.703V80.2004L343.106 96.3586V81.2176Z" fill="#1E272E"/>
<path d="M320.289 81.2178H322.759V101.561H320.289V81.2178Z" fill="#1E272E"/>
<path d="M41.4312 9.16939C44.1318 7.6102 47.459 7.6102 50.1596 9.16939L79.2266 25.9512C81.9272 27.5104 83.5908 30.3919 83.5908 33.5103V67.0739C83.5908 70.1923 81.9272 73.0738 79.2266 74.633L50.1596 91.4148C47.459 92.974 44.1318 92.974 41.4312 91.4148L12.3642 74.633C9.66364 73.0738 8 70.1923 8 67.0739V33.5103C8 30.3919 9.66364 27.5104 12.3642 25.9512L41.4312 9.16939Z" fill="#00CEC9"/>
<circle cx="26.5869" cy="32.3987" r="4.36424" fill="white"/>
<path d="M65.262 25.0333C66.3297 24.0433 67.887 23.8245 69.1787 24.4828C70.4705 25.1413 71.2299 26.5415 71.0889 28.0039L66.7247 73.2736C66.6085 74.4772 65.8981 75.5378 64.8392 76.0882C63.7802 76.6387 62.5184 76.6031 61.491 75.9937L40.5558 63.0624L45.7929 57.9376L60.3062 67.0697L63.2521 36.5059L26.3242 71.5564C25.2563 72.5466 23.6985 72.7647 22.4067 72.106C21.1149 71.4472 20.3559 70.0474 20.4973 68.5849L23.1158 41.5118C23.2334 40.2966 23.9568 39.2279 25.0312 38.6825C26.1055 38.1373 27.3801 38.1915 28.4057 38.8264L39.0739 45.41L33.5731 50.3784L29.5198 47.8302L28.335 60.0804L65.262 25.0333Z" fill="white"/>
<path d="M416.653 59.4854C417.832 61.5869 419.087 63.4065 420.42 64.9442C421.804 66.4819 423.316 67.6865 424.956 68.5578C426.648 69.4292 428.493 69.8649 430.492 69.8649C432.952 69.8649 434.951 69.1986 436.489 67.8659C438.027 66.5332 438.796 64.7905 438.796 62.6377C438.796 60.6899 438.309 59.1266 437.335 57.9477C436.412 56.7175 435.079 55.6924 433.337 54.8723C431.594 54.0009 429.595 53.1552 427.34 52.335C426.007 51.8737 424.521 51.2586 422.88 50.4898C421.24 49.6697 419.677 48.6702 418.19 47.4913C416.704 46.2611 415.474 44.7747 414.5 43.0319C413.526 41.2379 413.039 39.0851 413.039 36.5736C413.039 33.7032 413.782 31.1916 415.269 29.0388C416.755 26.8348 418.754 25.1177 421.266 23.8875C423.829 22.6573 426.725 22.0422 429.954 22.0422C433.132 22.0422 435.9 22.6317 438.257 23.8106C440.615 24.9382 442.614 26.3734 444.254 28.1162C445.895 29.8589 447.15 31.6785 448.022 33.575L440.718 37.7268C440 36.3942 439.129 35.164 438.104 34.0363C437.078 32.8574 435.874 31.9348 434.49 31.2685C433.157 30.5509 431.594 30.1921 429.8 30.1921C427.288 30.1921 425.443 30.7815 424.264 31.9604C423.085 33.0881 422.496 34.4208 422.496 35.9585C422.496 37.3424 422.906 38.5982 423.726 39.7259C424.597 40.8023 425.93 41.8274 427.724 42.8013C429.518 43.7751 431.85 44.7747 434.721 45.7998C436.361 46.3636 437.975 47.0812 439.564 47.9526C441.205 48.8239 442.665 49.9003 443.947 51.1818C445.28 52.4632 446.356 54.0009 447.176 55.7949C447.996 57.5376 448.406 59.5879 448.406 61.9457C448.406 64.4573 447.894 66.7126 446.869 68.7116C445.895 70.7106 444.562 72.4021 442.871 73.786C441.179 75.1187 439.257 76.1439 437.104 76.8615C435.003 77.6303 432.799 78.0147 430.492 78.0147C427.365 78.0147 424.444 77.3996 421.727 76.1695C419.062 74.8881 416.704 73.1966 414.654 71.0951C412.655 68.9935 411.066 66.7126 409.887 64.2523L416.653 59.4854Z" fill="#1E272E"/>
<path d="M378.539 51.1813H388.303L406.602 76.861H395.608L378.539 51.1813ZM367.391 23.0413H376.463V76.861H367.391V23.0413ZM372.773 30.8836V23.0413H383.998C387.945 23.0413 391.353 23.7332 394.224 25.1172C397.094 26.5011 399.324 28.4489 400.913 30.9604C402.553 33.4208 403.373 36.3424 403.373 39.7254C403.373 43.1083 402.553 46.0556 400.913 48.5672C399.324 51.0788 397.094 53.0265 394.224 54.4105C391.353 55.7944 387.945 56.4864 383.998 56.4864H372.773V48.9516H383.613C385.715 48.9516 387.535 48.6184 389.072 47.9521C390.61 47.2345 391.815 46.2094 392.686 44.8767C393.557 43.4927 393.993 41.8525 393.993 39.956C393.993 38.0083 393.557 36.368 392.686 35.0354C391.815 33.7027 390.61 32.6776 389.072 31.96C387.535 31.2424 385.715 30.8836 383.613 30.8836H372.773Z" fill="#1E272E"/>
<path d="M329.077 76.861V68.8649H356.218L356.458 72.7986L356.218 76.861H329.077ZM329.077 31.0373V23.0413H356.218L356.458 27.1036L356.218 31.0373H329.077ZM329.077 51.9501V44.1078H354.68L354.941 48.029L354.68 51.9501H329.077ZM323.465 23.0413H332.384V76.861H323.465V23.0413Z" fill="#1E272E"/>
<path d="M288.249 56.41V48.7214H314.159C314.261 52.6682 313.749 56.41 312.621 59.9467C311.494 63.4322 309.802 66.5332 307.547 69.2498C305.291 71.9664 302.498 74.1192 299.166 75.7082C295.835 77.2459 292.016 78.0147 287.71 78.0147C283.661 78.0147 279.919 77.3484 276.485 76.0157C273.051 74.6318 270.052 72.684 267.49 70.1724C264.978 67.6608 263.03 64.6879 261.646 61.2537C260.262 57.8195 259.57 54.0521 259.57 49.9516C259.57 45.851 260.262 42.1093 261.646 38.7263C263.081 35.2921 265.08 32.3449 267.643 29.8845C270.206 27.373 273.205 25.4508 276.639 24.1181C280.073 22.7342 283.815 22.0422 287.864 22.0422C291.401 22.0422 294.604 22.5292 297.475 23.5031C300.396 24.4769 302.985 25.8609 305.24 27.6549C307.495 29.3976 309.418 31.5248 311.007 34.0363L303.626 38.957C302.139 36.3942 300.063 34.3439 297.398 32.8062C294.784 31.2685 291.606 30.4996 287.864 30.4996C284.43 30.4996 281.278 31.3197 278.407 32.9599C275.588 34.5489 273.333 36.8042 271.641 39.7259C270.001 42.5962 269.181 46.0048 269.181 49.9516C269.181 53.8471 270.001 57.2813 271.641 60.2542C273.282 63.1759 275.511 65.4568 278.33 67.097C281.149 68.7372 284.327 69.5573 287.864 69.5573C290.273 69.5573 292.426 69.2242 294.322 68.5578C296.219 67.8915 297.859 66.9432 299.243 65.7131C300.627 64.4829 301.78 63.0734 302.703 61.4844C303.626 59.8954 304.318 58.204 304.779 56.41H288.249Z" fill="#1E272E"/>
<path d="M224.335 76.861V68.8649H251.476L251.751 72.8629L251.476 76.861H224.335ZM224.335 31.0373V23.0413H251.476L251.751 27.0393L251.476 31.0373H224.335ZM224.335 51.9501V44.1078H249.938L250.234 48.029L249.938 51.9501H224.335ZM218.723 23.0413H227.641V76.861H218.723V23.0413Z" fill="#1E272E"/>
<path d="M174.598 31.4218L174.866 27.2315L174.598 23.0413H212.118L212.297 27.2315L212.118 31.4218H197.894V76.861L193.358 76.3129L188.821 76.861V31.4218H174.598Z" fill="#1E272E"/>
<path d="M159.05 23.0413L163.509 22.1899L167.969 23.0413V79.552L128.68 40.7249V76.861L124.221 76.3131L119.762 76.861V20.3503L159.05 59.1774V23.0413Z" fill="#1E272E"/>
<path d="M98.5898 23.0413L103.04 22.1897L107.816 23.0413V76.861L103.203 76.3129L98.5898 76.861V23.0413Z" fill="#1E272E"/>
<path d="M446.488 8.27515C447.424 8.27515 448.289 8.43918 449.081 8.76831H449.08C449.883 9.08481 450.578 9.54145 451.163 10.1384L451.381 10.363C451.874 10.8989 452.264 11.5186 452.552 12.2214L452.672 12.5261C452.933 13.2458 453.063 14.0208 453.063 14.8503C453.063 15.7983 452.893 16.6748 452.552 17.4792C452.223 18.2824 451.76 18.9829 451.163 19.5798C450.578 20.1648 449.884 20.6214 449.081 20.95L449.08 20.9509C448.288 21.2677 447.424 21.4255 446.488 21.4255C445.565 21.4255 444.7 21.2676 443.896 20.9509L443.896 20.95C443.093 20.6214 442.393 20.1645 441.796 19.5798L441.794 19.5789C441.21 18.9821 440.747 18.2817 440.406 17.4792V17.4783C440.077 16.6741 439.913 15.7979 439.913 14.8503C439.913 13.9028 440.077 13.0266 440.406 12.2224V12.2214C440.747 11.4187 441.21 10.7243 441.795 10.1394C442.392 9.54246 443.092 9.08493 443.896 8.76831C444.7 8.43939 445.564 8.27515 446.488 8.27515ZM446.488 9.32788C445.715 9.32788 444.996 9.46517 444.332 9.73804C443.679 10.0111 443.104 10.3968 442.605 10.8953L442.604 10.8943C442.179 11.3302 441.836 11.835 441.573 12.408L441.466 12.658C441.193 13.3221 441.057 14.0526 441.057 14.8503C441.057 15.6477 441.193 16.3841 441.466 17.0603C441.739 17.7253 442.118 18.3072 442.604 18.8054C443.103 19.3039 443.679 19.6896 444.332 19.9626C444.996 20.2355 445.715 20.3728 446.488 20.3728C447.262 20.3728 447.974 20.2353 448.626 19.9626C449.291 19.6896 449.866 19.3043 450.353 18.8064L450.354 18.8054C450.852 18.3071 451.238 17.7253 451.511 17.0603C451.783 16.3841 451.92 15.6477 451.92 14.8503C451.92 14.1522 451.815 13.5056 451.606 12.9099L451.511 12.658C451.238 11.981 450.852 11.3934 450.354 10.8953L450.353 10.8943C449.866 10.3963 449.291 10.0111 448.626 9.73804C447.974 9.46535 447.262 9.32788 446.488 9.32788ZM446.271 10.8035C447.021 10.8035 447.652 11.0123 448.161 11.4343C448.673 11.8592 448.929 12.4349 448.929 13.1531C448.929 13.8713 448.673 14.4469 448.161 14.8718C447.87 15.1133 447.538 15.2817 447.167 15.3845L449.365 18.4177L449.452 18.5369H448.128L448.105 18.5046L446.018 15.5027H445.209V18.5369H444.139V10.8035H446.271ZM445.209 14.5408H446.271C446.752 14.5408 447.131 14.4181 447.415 14.1794L447.416 14.1785C447.708 13.9424 447.857 13.6041 447.857 13.1531C447.857 12.7021 447.708 12.3638 447.416 12.1277H447.415C447.131 11.8889 446.752 11.7654 446.271 11.7654H445.209V14.5408Z" fill="#1E272E" stroke="#1E272E" stroke-width="0.15"/>
</svg>
