<svg width="255" height="184" viewBox="0 0 255 184" fill="none" xmlns="http://www.w3.org/2000/svg">
<path d="M205.148 153.471L209.241 151.577C209.628 152.983 210.339 154.059 211.373 154.805C212.407 155.537 213.728 155.903 215.336 155.903C216.858 155.903 218.064 155.479 218.954 154.633C219.859 153.786 220.311 152.653 220.311 151.233C220.311 149.382 218.775 147.732 215.702 146.284C215.271 146.068 214.941 145.911 214.711 145.81C211.237 144.117 208.918 142.589 207.755 141.227C206.606 139.849 206.032 138.171 206.032 136.191C206.032 133.623 206.9 131.543 208.638 129.951C210.389 128.358 212.68 127.562 215.508 127.562C217.834 127.562 219.78 128.014 221.345 128.918C222.91 129.807 223.994 131.091 224.597 132.77L220.591 134.835C219.959 133.846 219.263 133.121 218.502 132.662C217.755 132.203 216.894 131.973 215.917 131.973C214.539 131.973 213.441 132.332 212.622 133.049C211.818 133.767 211.416 134.728 211.416 135.933C211.416 137.827 213.196 139.591 216.757 141.227C217.03 141.356 217.246 141.456 217.404 141.528C220.519 142.962 222.659 144.368 223.822 145.746C224.985 147.108 225.567 148.816 225.567 150.867C225.567 153.851 224.626 156.225 222.745 157.99C220.864 159.74 218.323 160.615 215.121 160.615C212.435 160.615 210.231 159.998 208.508 158.765C206.8 157.531 205.68 155.766 205.148 153.471Z" fill="#F6F8F8"/>
<path d="M187.355 141.7H188.281C190.995 141.7 192.797 141.384 193.687 140.753C194.577 140.122 195.023 139.003 195.023 137.396C195.023 135.66 194.542 134.441 193.58 133.738C192.632 133.021 190.866 132.662 188.281 132.662H187.355V141.7ZM187.032 145.681V159.776H182.229V128.272H189.38C191.476 128.272 193.099 128.409 194.247 128.681C195.41 128.954 196.401 129.406 197.22 130.037C198.196 130.797 198.95 131.78 199.481 132.985C200.012 134.19 200.278 135.51 200.278 136.944C200.278 139.469 199.668 141.449 198.447 142.884C197.227 144.304 195.425 145.157 193.041 145.444L203.896 159.776H198.103L187.614 145.681H187.032Z" fill="#F6F8F8"/>
<path d="M158.753 159.776V128.272H176.4L174.809 132.605H163.879V140.517H176.349V145.014H163.879V155.192H176.349V159.776H158.753Z" fill="#F6F8F8"/>
<path d="M140.768 143.637H153.26C153.26 143.852 153.267 144.153 153.282 144.54C153.325 145.559 153.346 146.248 153.346 146.606C153.346 151.039 152.076 154.482 149.534 156.935C146.993 159.389 143.41 160.615 138.787 160.615C136.202 160.615 133.898 160.235 131.873 159.475C129.848 158.714 128.075 157.567 126.553 156.032C125.06 154.511 123.911 152.725 123.107 150.673C122.317 148.622 121.922 146.427 121.922 144.089C121.922 141.707 122.324 139.512 123.128 137.504C123.947 135.495 125.153 133.724 126.747 132.189C128.283 130.682 130.085 129.535 132.153 128.746C134.221 127.957 136.432 127.562 138.787 127.562C141.271 127.562 143.489 128.014 145.442 128.918C147.409 129.822 149.161 131.206 150.697 133.071L146.95 135.89C145.887 134.656 144.688 133.738 143.353 133.135C142.017 132.533 140.524 132.232 138.873 132.232C135.455 132.232 132.663 133.329 130.495 135.524C128.341 137.705 127.264 140.545 127.264 144.046C127.264 147.603 128.341 150.494 130.495 152.718C132.663 154.927 135.47 156.032 138.916 156.032C141.845 156.032 144.15 155.35 145.83 153.987C147.51 152.624 148.35 150.767 148.35 148.414V147.962H140.768V143.637Z" fill="#F6F8F8"/>
<path d="M99.8247 159.776V128.272H117.382L115.791 132.605H104.942L104.951 140.517H117.421V145.014H104.951V155.192H117.421V159.776H99.8247Z" fill="#F6F8F8"/>
<path d="M87.5708 132.605V159.762H82.4447V132.605L73.9873 132.592L75.5785 128.259L95.9745 128.27L94.3833 132.605H87.5708Z" fill="#F6F8F8"/>
<path d="M41.9302 159.776V127.024L61.9606 146.284C62.5062 146.829 63.059 147.41 63.619 148.027C64.179 148.644 64.7677 149.339 65.3851 150.114V128.272H70.1235V161.003L49.6839 141.399C49.1382 140.868 48.607 140.309 48.0901 139.72C47.5875 139.132 47.1065 138.515 46.647 137.87V159.776H41.9302Z" fill="#F6F8F8"/>
<path d="M29.437 159.776V129.426L34.5631 128.272V159.776H29.437Z" fill="#F6F8F8"/>
<path opacity="0.75" d="M122.07 26.9101C123.725 24.0453 127.864 24.0453 129.52 26.9101L170.557 97.9259C172.212 100.791 170.143 104.372 166.832 104.372H150.322C151.775 104.372 152.684 102.8 151.957 101.542L127.433 59.1027C126.706 57.845 124.889 57.845 124.163 59.1027L99.6387 101.542C98.9119 102.799 99.8203 104.372 101.274 104.372H84.7573C81.4464 104.372 79.3771 100.791 81.0326 97.9259L122.07 26.9101Z" fill="white"/>
<path opacity="0.5" d="M123.872 80.2594C124.732 78.77 126.884 78.77 127.745 80.2594L139.742 101.02C140.602 102.51 139.527 104.372 137.805 104.372H113.811C112.09 104.372 111.014 102.51 111.875 101.02L123.872 80.2594Z" fill="white"/>
</svg>
