<svg width="394" height="281" viewBox="0 0 394 281" fill="none" xmlns="http://www.w3.org/2000/svg">
<rect width="394" height="281" fill="white"/>
<path d="M190.649 25.7017C194.579 23.4328 199.421 23.4328 203.351 25.7017L245.649 50.1226C249.579 52.3916 252 56.5848 252 61.1226V109.964C252 114.502 249.579 118.696 245.649 120.964L203.351 145.385C199.421 147.654 194.579 147.654 190.649 145.385L148.351 120.964C144.421 118.696 142 114.502 142 109.965V61.1226C142 56.5848 144.421 52.3916 148.351 50.1226L190.649 25.7017Z" fill="#00CEC9"/>
<circle cx="169.056" cy="59.5053" r="6.35104" fill="white"/>
<path d="M225.33 48.7867C226.884 47.3461 229.15 47.0277 231.03 47.9857C232.91 48.9439 234.015 50.9814 233.81 53.1096L227.459 118.986C227.29 120.738 226.256 122.281 224.715 123.082C223.174 123.883 221.338 123.831 219.843 122.945L189.378 104.127L196.999 96.6692L218.119 109.958L222.405 65.4817L168.668 116.487C167.114 117.928 164.847 118.246 162.967 117.287C161.087 116.328 159.983 114.291 160.189 112.163L163.999 72.7664C164.17 70.998 165.223 69.4427 166.786 68.6491C168.35 67.8557 170.204 67.9346 171.697 68.8585L187.221 78.439L179.216 85.6691L173.318 81.9609L171.594 99.7873L225.33 48.7867Z" fill="white"/>
<path d="M338.399 196.192C339.564 198.269 340.806 200.068 342.123 201.588C343.491 203.108 344.986 204.298 346.607 205.16C348.279 206.021 350.103 206.452 352.079 206.452C354.511 206.452 356.487 205.793 358.007 204.476C359.527 203.158 360.287 201.436 360.287 199.308C360.287 197.382 359.806 195.837 358.843 194.672C357.931 193.456 356.614 192.442 354.891 191.632C353.168 190.77 351.192 189.934 348.963 189.124C347.646 188.668 346.176 188.06 344.555 187.3C342.934 186.489 341.388 185.501 339.919 184.336C338.45 183.12 337.234 181.65 336.271 179.928C335.308 178.154 334.827 176.026 334.827 173.544C334.827 170.706 335.562 168.224 337.031 166.096C338.5 163.917 340.476 162.22 342.959 161.004C345.492 159.788 348.355 159.18 351.547 159.18C354.688 159.18 357.424 159.762 359.755 160.928C362.086 162.042 364.062 163.461 365.683 165.184C367.304 166.906 368.546 168.705 369.407 170.58L362.187 174.684C361.478 173.366 360.616 172.15 359.603 171.036C358.59 169.87 357.399 168.958 356.031 168.3C354.714 167.59 353.168 167.236 351.395 167.236C348.912 167.236 347.088 167.818 345.923 168.984C344.758 170.098 344.175 171.416 344.175 172.936C344.175 174.304 344.58 175.545 345.391 176.66C346.252 177.724 347.57 178.737 349.343 179.7C351.116 180.662 353.422 181.65 356.259 182.664C357.88 183.221 359.476 183.93 361.047 184.792C362.668 185.653 364.112 186.717 365.379 187.984C366.696 189.25 367.76 190.77 368.571 192.544C369.382 194.266 369.787 196.293 369.787 198.624C369.787 201.106 369.28 203.336 368.267 205.312C367.304 207.288 365.987 208.96 364.315 210.328C362.643 211.645 360.743 212.658 358.615 213.368C356.538 214.128 354.359 214.508 352.079 214.508C348.988 214.508 346.1 213.9 343.415 212.684C340.78 211.417 338.45 209.745 336.423 207.668C334.447 205.59 332.876 203.336 331.711 200.904L338.399 196.192Z" fill="#1E272E"/>
<path d="M300.723 187.984H310.375L328.463 213.368H317.595L300.723 187.984ZM289.703 160.168H298.671V213.368H289.703V160.168ZM295.023 167.92V160.168H306.119C310.02 160.168 313.39 160.852 316.227 162.22C319.064 163.588 321.268 165.513 322.839 167.996C324.46 170.428 325.271 173.316 325.271 176.66C325.271 180.004 324.46 182.917 322.839 185.4C321.268 187.883 319.064 189.808 316.227 191.176C313.39 192.544 310.02 193.228 306.119 193.228H295.023V185.78H305.739C307.816 185.78 309.615 185.451 311.135 184.792C312.655 184.083 313.846 183.069 314.707 181.752C315.568 180.384 315.999 178.763 315.999 176.888C315.999 174.963 315.568 173.341 314.707 172.024C313.846 170.707 312.655 169.693 311.135 168.984C309.615 168.275 307.816 167.92 305.739 167.92H295.023Z" fill="#1E272E"/>
<path d="M251.833 213.368V205.464H278.661L278.898 209.352L278.661 213.368H251.833ZM251.833 168.072V160.168H278.661L278.898 164.184L278.661 168.072H251.833ZM251.833 188.744V180.992H277.141L277.398 184.868L277.141 188.744H251.833ZM246.285 160.168H255.101V213.368H246.285V160.168Z" fill="#1E272E"/>
<path d="M211.477 193.152V185.552H237.089C237.19 189.453 236.684 193.152 235.569 196.648C234.454 200.093 232.782 203.158 230.553 205.844C228.324 208.529 225.562 210.657 222.269 212.228C218.976 213.748 215.201 214.508 210.945 214.508C206.942 214.508 203.244 213.849 199.849 212.532C196.454 211.164 193.49 209.238 190.957 206.756C188.474 204.273 186.549 201.334 185.181 197.94C183.813 194.545 183.129 190.821 183.129 186.768C183.129 182.714 183.813 179.016 185.181 175.672C186.6 172.277 188.576 169.364 191.109 166.932C193.642 164.449 196.606 162.549 200.001 161.232C203.396 159.864 207.094 159.18 211.097 159.18C214.593 159.18 217.76 159.661 220.597 160.624C223.485 161.586 226.044 162.954 228.273 164.728C230.502 166.45 232.402 168.553 233.973 171.036L226.677 175.9C225.208 173.366 223.156 171.34 220.521 169.82C217.937 168.3 214.796 167.54 211.097 167.54C207.702 167.54 204.586 168.35 201.749 169.972C198.962 171.542 196.733 173.772 195.061 176.66C193.44 179.497 192.629 182.866 192.629 186.768C192.629 190.618 193.44 194.013 195.061 196.952C196.682 199.84 198.886 202.094 201.673 203.716C204.46 205.337 207.601 206.148 211.097 206.148C213.478 206.148 215.606 205.818 217.481 205.16C219.356 204.501 220.977 203.564 222.345 202.348C223.713 201.132 224.853 199.738 225.765 198.168C226.677 196.597 227.361 194.925 227.817 193.152H211.477Z" fill="#1E272E"/>
<path d="M148.298 213.368V205.464H175.126L175.398 209.416L175.126 213.368H148.298ZM148.298 168.072V160.168H175.126L175.398 164.12L175.126 168.072H148.298ZM148.298 188.744V180.992H173.606L173.898 184.868L173.606 188.744H148.298ZM142.75 160.168H151.566V213.368H142.75V160.168Z" fill="#1E272E"/>
<path d="M99.1328 168.452L99.3984 164.31L99.1328 160.168H136.221L136.398 164.31L136.221 168.452H122.161V213.368L117.677 212.826L113.193 213.368V168.452H99.1328Z" fill="#1E272E"/>
<path d="M83.7657 160.168L88.1737 159.326L92.5817 160.168V216.028L53.7457 177.648V213.368L49.3377 212.826L44.9297 213.368V157.508L83.7657 195.888V160.168Z" fill="#1E272E"/>
<path d="M24 160.168L28.3984 159.326L33.12 160.168V213.368L28.56 212.826L24 213.368V160.168Z" fill="#1E272E"/>
<path d="M274.605 245.47C275.322 246.725 276.069 247.83 276.846 248.787C277.652 249.743 278.549 250.49 279.535 251.028C280.521 251.566 281.642 251.835 282.897 251.835C284.57 251.835 285.915 251.371 286.931 250.445C287.947 249.519 288.455 248.338 288.455 246.904C288.455 245.5 288.126 244.379 287.468 243.542C286.811 242.706 285.945 242.033 284.869 241.525C283.823 240.988 282.702 240.51 281.507 240.091C280.73 239.822 279.864 239.479 278.907 239.06C277.951 238.612 277.04 238.059 276.173 237.402C275.307 236.715 274.59 235.878 274.022 234.892C273.484 233.906 273.215 232.696 273.215 231.261C273.215 229.707 273.604 228.318 274.38 227.093C275.157 225.868 276.233 224.911 277.608 224.224C278.982 223.507 280.551 223.148 282.314 223.148C284.017 223.148 285.496 223.477 286.751 224.135C288.036 224.762 289.127 225.584 290.023 226.6C290.92 227.586 291.622 228.632 292.13 229.737L288.858 231.62C288.469 230.843 287.976 230.081 287.379 229.334C286.781 228.587 286.049 227.974 285.183 227.496C284.346 227.018 283.315 226.779 282.09 226.779C280.387 226.779 279.147 227.197 278.37 228.034C277.593 228.841 277.204 229.752 277.204 230.768C277.204 231.635 277.428 232.442 277.877 233.189C278.325 233.906 279.072 234.593 280.118 235.25C281.193 235.878 282.643 236.505 284.465 237.133C285.302 237.432 286.184 237.82 287.11 238.298C288.036 238.776 288.888 239.389 289.665 240.136C290.472 240.853 291.129 241.735 291.637 242.78C292.145 243.796 292.399 245.022 292.399 246.456C292.399 247.83 292.13 249.071 291.592 250.176C291.084 251.282 290.367 252.223 289.441 253C288.544 253.777 287.513 254.374 286.348 254.793C285.212 255.211 284.017 255.42 282.762 255.42C281.059 255.42 279.475 255.062 278.011 254.345C276.577 253.598 275.307 252.626 274.201 251.431C273.125 250.206 272.244 248.906 271.557 247.532L274.605 245.47Z" fill="#1E272E"/>
<path d="M249.018 227.182V223.597H268.963V227.182H260.895V254.972H257.086V227.182H249.018Z" fill="#1E272E"/>
<path d="M221.775 239.733V236.147H243.289V239.733H221.775ZM240.734 223.597H244.544V254.972H240.734V223.597ZM219.668 223.597H223.478V254.972H219.668V223.597Z" fill="#1E272E"/>
<path d="M199.03 242.646V239.06H213.597C213.597 241.242 213.268 243.318 212.611 245.291C211.954 247.233 210.983 248.966 209.698 250.49C208.413 252.014 206.829 253.224 204.946 254.12C203.094 254.987 200.972 255.42 198.582 255.42C196.311 255.42 194.204 255.032 192.262 254.255C190.32 253.448 188.631 252.328 187.197 250.893C185.763 249.429 184.642 247.711 183.835 245.739C183.058 243.767 182.67 241.615 182.67 239.284C182.67 236.954 183.058 234.802 183.835 232.83C184.642 230.858 185.763 229.155 187.197 227.72C188.631 226.256 190.32 225.136 192.262 224.359C194.204 223.552 196.311 223.148 198.582 223.148C200.524 223.148 202.302 223.402 203.916 223.91C205.559 224.418 207.023 225.165 208.308 226.152C209.623 227.138 210.729 228.363 211.625 229.827L208.936 232.292C207.95 230.619 206.575 229.319 204.812 228.393C203.049 227.436 200.972 226.958 198.582 226.958C196.371 226.958 194.368 227.481 192.576 228.527C190.783 229.573 189.348 231.022 188.273 232.875C187.227 234.698 186.704 236.834 186.704 239.284C186.704 241.705 187.227 243.841 188.273 245.694C189.348 247.547 190.783 248.996 192.576 250.042C194.368 251.088 196.371 251.61 198.582 251.61C200.136 251.61 201.525 251.386 202.75 250.938C204.005 250.46 205.081 249.803 205.977 248.966C206.874 248.129 207.606 247.173 208.174 246.097C208.771 245.022 209.205 243.871 209.474 242.646H199.03Z" fill="#1E272E"/>
<path d="M173.031 223.597H176.841V254.972H173.031V223.597Z" fill="#1E272E"/>
<path d="M149.19 245.47C149.908 246.725 150.655 247.83 151.432 248.787C152.238 249.743 153.135 250.49 154.121 251.028C155.107 251.566 156.228 251.835 157.483 251.835C159.156 251.835 160.501 251.371 161.517 250.445C162.533 249.519 163.04 248.338 163.04 246.904C163.04 245.5 162.712 244.379 162.054 243.542C161.397 242.706 160.53 242.033 159.455 241.525C158.409 240.988 157.288 240.51 156.093 240.091C155.316 239.822 154.45 239.479 153.493 239.06C152.537 238.612 151.626 238.059 150.759 237.402C149.893 236.715 149.176 235.878 148.608 234.892C148.07 233.906 147.801 232.696 147.801 231.261C147.801 229.707 148.189 228.318 148.966 227.093C149.743 225.868 150.819 224.911 152.194 224.224C153.568 223.507 155.137 223.148 156.9 223.148C158.603 223.148 160.082 223.477 161.337 224.135C162.622 224.762 163.713 225.584 164.609 226.6C165.506 227.586 166.208 228.632 166.716 229.737L163.444 231.62C163.055 230.843 162.562 230.081 161.965 229.334C161.367 228.587 160.635 227.974 159.768 227.496C158.932 227.018 157.901 226.779 156.676 226.779C154.973 226.779 153.732 227.197 152.956 228.034C152.179 228.841 151.79 229.752 151.79 230.768C151.79 231.635 152.014 232.442 152.462 233.189C152.911 233.906 153.658 234.593 154.704 235.25C155.779 235.878 157.229 236.505 159.051 237.133C159.888 237.432 160.769 237.82 161.696 238.298C162.622 238.776 163.474 239.389 164.251 240.136C165.057 240.853 165.715 241.735 166.223 242.78C166.731 243.796 166.985 245.022 166.985 246.456C166.985 247.83 166.716 249.071 166.178 250.176C165.67 251.282 164.953 252.223 164.027 253C163.13 253.777 162.099 254.374 160.934 254.793C159.798 255.211 158.603 255.42 157.348 255.42C155.645 255.42 154.061 255.062 152.597 254.345C151.163 253.598 149.893 252.626 148.787 251.431C147.711 250.206 146.83 248.906 146.143 247.532L149.19 245.47Z" fill="#1E272E"/>
<path d="M136.576 223.597H140.386V256.541L116.63 231.62V254.972H112.82V222.028L136.576 246.949V223.597Z" fill="#1E272E"/>
<path d="M101.389 223.597H105.199V254.972H101.389V223.597Z" fill="#1E272E"/>
<path d="M370.211 151.455C371.076 151.101 372.006 150.925 373 150.925C374.006 150.925 374.936 151.101 375.788 151.455C376.653 151.796 377.401 152.287 378.03 152.93L378.265 153.172C378.795 153.749 379.216 154.415 379.525 155.172H379.524C379.891 156.037 380.075 156.98 380.075 158C380.075 159.02 379.891 159.962 379.524 160.827L379.525 160.828C379.172 161.692 378.674 162.447 378.031 163.089C377.402 163.718 376.653 164.21 375.789 164.563V164.564C374.937 164.905 374.007 165.075 373 165.075C372.006 165.075 371.076 164.905 370.211 164.564V164.563C369.347 164.21 368.593 163.719 367.95 163.09L367.949 163.089C367.32 162.447 366.823 161.693 366.456 160.829V160.828C366.102 159.963 365.925 159.02 365.925 158C365.925 156.98 366.102 156.037 366.456 155.172V155.171C366.823 154.307 367.321 153.56 367.95 152.931C368.593 152.288 369.346 151.796 370.211 151.455ZM373 152.047C372.166 152.047 371.392 152.195 370.676 152.489V152.488C369.972 152.783 369.352 153.199 368.814 153.736L368.813 153.735C368.355 154.205 367.985 154.75 367.702 155.367L367.586 155.637C367.292 156.353 367.145 157.14 367.145 158C367.145 158.86 367.292 159.654 367.586 160.383L367.702 160.647C367.985 161.255 368.355 161.794 368.813 162.264H368.814C369.352 162.801 369.971 163.216 370.675 163.511C371.391 163.805 372.166 163.953 373 163.953C373.834 163.953 374.602 163.806 375.305 163.512V163.511C376.021 163.216 376.642 162.802 377.166 162.265V162.264C377.703 161.726 378.12 161.1 378.414 160.383L378.518 160.106C378.743 159.454 378.855 158.752 378.855 158C378.855 157.248 378.743 156.55 378.518 155.908L378.414 155.637C378.12 154.907 377.703 154.273 377.166 153.736V153.735C376.642 153.198 376.021 152.784 375.305 152.489V152.488C374.602 152.194 373.834 152.047 373 152.047ZM372.767 153.647C373.572 153.647 374.251 153.872 374.798 154.325C375.348 154.781 375.622 155.4 375.622 156.172C375.622 156.944 375.348 157.562 374.798 158.019C374.483 158.28 374.124 158.462 373.723 158.572L376.094 161.845L376.181 161.964H374.77L374.747 161.932L372.497 158.697H371.616V161.964H370.475V153.647H372.767ZM371.616 157.672H372.767C373.285 157.672 373.695 157.539 374.002 157.281L374.003 157.28C374.319 157.025 374.48 156.659 374.48 156.172C374.48 155.685 374.319 155.319 374.003 155.063H374.002L374.05 155.006L374.002 155.062C373.695 154.804 373.285 154.672 372.767 154.672H371.616V157.672Z" fill="#1E272E" stroke="#1E272E" stroke-width="0.15"/>
</svg>
